<svg width="128" height="128">

<path style="fill:#4cb051; stroke:none;" d="M39.0895 11.0602C33.3668 11.9214 27.2879 28.2788 24.7801 33C18.891 44.0867 12.7515 55.0694 6.57562 66C4.15634 70.2818 -0.219926 75.8238 0.279321 81C0.817953 86.5845 6.0514 92.3787 8.94985 97C11.652 101.308 18.3441 117.364 24.0502 117.364C29.9826 117.364 35.4832 101.431 38 97C44.4001 85.7315 50.5468 74.3172 56.8603 63C59.2469 58.7221 63.8084 53.1117 63.6535 48C63.4942 42.7387 58.6323 37.277 55.9498 33C53.1519 28.5388 45.2669 10.1305 39.0895 11.0602z"/>
<path style="fill:#f0bf39; stroke:none;" d="M52 10L52 11L92 11C81.4881 6.58899 63.434 10 52 10z"/>
<path style="fill:#ffc107; stroke:none;" d="M50 11C51.0284 26.4766 68.2888 45.8147 76.1998 59C78.8747 63.4582 81.7586 71.2056 86.3287 73.9722C90.6683 76.5993 99.0846 75 104 75C108.814 75 123.773 77.4534 126.957 73.2577C130.827 68.1576 117.33 51.5501 114.6 47C109.108 37.8461 101.812 17.561 92.6713 12.0278C89.3234 10.001 83.7531 11 80 11L50 11z"/>
<path style="fill:#2196f3; stroke:none;" d="M34 116C49.538 120.593 70.7824 117 87 117C93.0604 117 102.232 118.711 107.895 116.397C112.061 114.694 114.196 108.659 116.281 105C118.872 100.452 130.834 85.8085 126.957 80.6034C123.523 75.9939 103.483 79 98 79C86.6181 79 65.2225 74.8786 55.1042 80.3179C46.1965 85.1064 37.1716 106.686 34 116z"/>
<path style="fill:#0000ff; stroke:none;" d="M117 102L118 103L117 102z"/>
<path style="fill:#348bd7; stroke:none;" d="M36 117L36 118L107 118L85 117L36 117z"/>
</svg>